<svg width="30" height="26" viewBox="0 0 30 26" fill="none" xmlns="http://www.w3.org/2000/svg">
<path d="M9.4377 25.1874C20.7557 25.1874 26.9479 15.8083 26.9479 7.67727C26.9479 7.41359 26.942 7.14406 26.9303 6.88039C28.1348 6.00927 29.1744 4.93026 30 3.69406C28.8782 4.19319 27.6871 4.51917 26.4674 4.66086C27.7516 3.89107 28.7132 2.68178 29.1738 1.25715C27.9657 1.97314 26.6445 2.4782 25.2668 2.7507C24.3385 1.76439 23.1112 1.11133 21.7746 0.892503C20.438 0.673671 19.0665 0.901252 17.8722 1.54006C16.6779 2.17887 15.7272 3.19332 15.1673 4.42658C14.6074 5.65984 14.4693 7.04321 14.7744 8.36281C12.3281 8.24005 9.93492 7.60457 7.74998 6.49756C5.56503 5.39056 3.63712 3.83673 2.09121 1.93684C1.3055 3.29149 1.06507 4.8945 1.41879 6.42005C1.77251 7.94561 2.69383 9.27925 3.99551 10.1499C3.01829 10.1189 2.06247 9.85579 1.20703 9.38234V9.45851C1.20616 10.8801 1.69762 12.2582 2.59789 13.3584C3.49815 14.4586 4.75165 15.2131 6.14531 15.4937C5.24007 15.7414 4.28998 15.7774 3.36855 15.5991C3.76182 16.8217 4.52697 17.8911 5.55721 18.6579C6.58746 19.4247 7.8314 19.8507 9.11543 19.8765C6.93553 21.5888 4.24272 22.5176 1.4707 22.5132C0.979109 22.5125 0.487999 22.4823 0 22.423C2.81607 24.2296 6.09191 25.1892 9.4377 25.1874Z" fill="white"/>
</svg>
