<svg width="26" height="24" viewBox="0 0 26 24" fill="none" xmlns="http://www.w3.org/2000/svg">
<path d="M23.6296 2.44341C22.2512 1.06143 20.424 0.217951 18.4781 0.0653308C16.5322 -0.0872892 14.5959 0.461016 13.0189 1.6112C11.3644 0.380619 9.30515 -0.177387 7.25573 0.0495543C5.20632 0.276496 3.31901 1.27153 1.97386 2.83427C0.628711 4.39702 -0.0743573 6.4114 0.00623561 8.47177C0.0868286 10.5321 0.945096 12.4854 2.4082 13.9383L10.4833 22.0264C11.1595 22.6919 12.0702 23.0649 13.0189 23.0649C13.9676 23.0649 14.8784 22.6919 15.5545 22.0264L23.6296 13.9383C25.1478 12.4108 26 10.3446 26 8.19088C26 6.03717 25.1478 3.97096 23.6296 2.44341V2.44341ZM21.7961 12.1439L13.7211 20.2189C13.6292 20.3117 13.5198 20.3854 13.3993 20.4356C13.2788 20.4859 13.1495 20.5118 13.0189 20.5118C12.8883 20.5118 12.759 20.4859 12.6385 20.4356C12.518 20.3854 12.4086 20.3117 12.3167 20.2189L4.24167 12.1049C3.2219 11.0625 2.65086 9.66216 2.65086 8.20388C2.65086 6.7456 3.2219 5.3453 4.24167 4.30289C5.28084 3.27691 6.68236 2.70162 8.14266 2.70162C9.60297 2.70162 11.0045 3.27691 12.0437 4.30289C12.1645 4.42477 12.3084 4.5215 12.4668 4.58752C12.6253 4.65353 12.7952 4.68752 12.9669 4.68752C13.1385 4.68752 13.3085 4.65353 13.467 4.58752C13.6254 4.5215 13.7692 4.42477 13.8901 4.30289C14.9293 3.27691 16.3308 2.70162 17.7911 2.70162C19.2514 2.70162 20.6529 3.27691 21.6921 4.30289C22.7259 5.33164 23.3157 6.72435 23.3351 8.18267C23.3546 9.64098 22.8021 11.0489 21.7961 12.1049V12.1439Z" fill="#4F433F"/>
</svg>
