<svg width="25" height="25" viewBox="0 0 25 25" fill="none" xmlns="http://www.w3.org/2000/svg">
<path d="M9 12.5L14 18V7L9 12.5Z" fill="#4F433F"/>
<path d="M12.5 25C10.0277 25 7.61099 24.2669 5.55538 22.8934C3.49976 21.5199 1.89761 19.5676 0.951511 17.2835C0.00541605 14.9995 -0.242126 12.4861 0.24019 10.0614C0.722505 7.63661 1.91301 5.40933 3.66117 3.66117C5.40933 1.91301 7.63661 0.722505 10.0614 0.24019C12.4861 -0.242126 14.9995 0.00541605 17.2835 0.951511C19.5676 1.89761 21.5199 3.49976 22.8934 5.55538C24.2669 7.61099 25 10.0277 25 12.5C24.9962 15.8141 23.6781 18.9913 21.3347 21.3347C18.9913 23.6781 15.8141 24.9962 12.5 25ZM12.5 1.69469C10.3629 1.69469 8.27382 2.32841 6.49689 3.51571C4.71997 4.70302 3.33502 6.39058 2.5172 8.36499C1.69937 10.3394 1.48539 12.512 1.90231 14.608C2.31924 16.704 3.34834 18.6294 4.85949 20.1405C6.37064 21.6517 8.29597 22.6808 10.392 23.0977C12.488 23.5146 14.6606 23.3006 16.635 22.4828C18.6094 21.665 20.297 20.28 21.4843 18.5031C22.6716 16.7262 23.3053 14.6371 23.3053 12.5C23.3023 9.63519 22.1629 6.88859 20.1371 4.86286C18.1114 2.83713 15.3648 1.69774 12.5 1.69469Z" fill="#4F433F"/>
</svg>
