<svg width="26" height="26" viewBox="0 0 26 26" fill="none" xmlns="http://www.w3.org/2000/svg">
<path d="M12.077 17.277C12.0211 17.3388 11.969 17.4039 11.921 17.472C11.8718 17.5445 11.8325 17.6232 11.804 17.706C11.7665 17.7797 11.7402 17.8586 11.726 17.94C11.7196 18.0265 11.7196 18.1134 11.726 18.2C11.7216 18.3705 11.7572 18.5397 11.83 18.694C11.8884 18.8553 11.9815 19.0018 12.1029 19.1231C12.2242 19.2445 12.3707 19.3376 12.532 19.396C12.6876 19.4648 12.8559 19.5003 13.026 19.5003C13.1961 19.5003 13.3644 19.4648 13.52 19.396C13.6813 19.3376 13.8278 19.2445 13.9492 19.1231C14.0705 19.0018 14.1636 18.8553 14.222 18.694C14.2797 18.5359 14.3062 18.3682 14.3 18.2C14.301 18.0289 14.2682 17.8593 14.2035 17.7009C14.1388 17.5425 14.0435 17.3985 13.923 17.277C13.8022 17.1551 13.6584 17.0584 13.5 16.9924C13.3415 16.9264 13.1716 16.8925 13 16.8925C12.8284 16.8925 12.6585 16.9264 12.5001 16.9924C12.3416 17.0584 12.1979 17.1551 12.077 17.277ZM13 0C10.4288 0 7.91543 0.762436 5.77759 2.19089C3.63975 3.61935 1.97351 5.64967 0.989572 8.02511C0.00563269 10.4006 -0.251811 13.0144 0.249797 15.5362C0.751405 18.0579 1.98953 20.3743 3.80762 22.1924C5.6257 24.0105 7.94208 25.2486 10.4638 25.7502C12.9856 26.2518 15.5994 25.9944 17.9749 25.0104C20.3503 24.0265 22.3806 22.3602 23.8091 20.2224C25.2376 18.0846 26 15.5712 26 13C26 11.2928 25.6637 9.60234 25.0104 8.02511C24.3571 6.44788 23.3995 5.01477 22.1924 3.80761C20.9852 2.60045 19.5521 1.64288 17.9749 0.989566C16.3977 0.336255 14.7072 0 13 0V0ZM13 23.4C10.9431 23.4 8.93234 22.79 7.22207 21.6473C5.5118 20.5045 4.17881 18.8803 3.39166 16.9799C2.60451 15.0796 2.39855 12.9885 2.79984 10.9711C3.20112 8.95366 4.19163 7.10055 5.64609 5.64609C7.10056 4.19162 8.95366 3.20112 10.9711 2.79983C12.9885 2.39855 15.0796 2.6045 16.9799 3.39165C18.8803 4.1788 20.5045 5.5118 21.6473 7.22207C22.79 8.93234 23.4 10.9431 23.4 13C23.4 15.7582 22.3043 18.4035 20.3539 20.3539C18.4035 22.3043 15.7583 23.4 13 23.4V23.4ZM13 6.5C12.315 6.49956 11.6419 6.67955 11.0486 7.02187C10.4552 7.36419 9.96251 7.85676 9.62 8.45C9.52594 8.59796 9.46279 8.76342 9.43433 8.93643C9.40587 9.10943 9.41271 9.2864 9.45442 9.4567C9.49613 9.62699 9.57186 9.78709 9.67705 9.92736C9.78224 10.0676 9.91472 10.1852 10.0665 10.2729C10.2183 10.3607 10.3863 10.4168 10.5603 10.4379C10.7344 10.4591 10.9109 10.4448 11.0793 10.3959C11.2477 10.3471 11.4045 10.2647 11.5402 10.1537C11.6759 10.0427 11.7877 9.90535 11.869 9.75C11.9835 9.55161 12.1485 9.38701 12.3471 9.27287C12.5457 9.15872 12.7709 9.09909 13 9.1C13.3448 9.1 13.6754 9.23696 13.9192 9.48076C14.163 9.72456 14.3 10.0552 14.3 10.4C14.3 10.7448 14.163 11.0754 13.9192 11.3192C13.6754 11.563 13.3448 11.7 13 11.7C12.6552 11.7 12.3246 11.837 12.0808 12.0808C11.837 12.3246 11.7 12.6552 11.7 13V14.3C11.7 14.6448 11.837 14.9754 12.0808 15.2192C12.3246 15.463 12.6552 15.6 13 15.6C13.3448 15.6 13.6754 15.463 13.9192 15.2192C14.163 14.9754 14.3 14.6448 14.3 14.3V14.066C15.1598 13.754 15.8826 13.1498 16.342 12.3589C16.8014 11.5681 16.9683 10.6409 16.8134 9.73945C16.6585 8.83803 16.1918 8.01972 15.4947 7.42757C14.7976 6.83541 13.9146 6.50709 13 6.5V6.5Z" fill="#4F433F"/>
</svg>
