<svg width="25" height="25" viewBox="0 0 25 25" fill="none" xmlns="http://www.w3.org/2000/svg">
<path d="M16 12.5L11 18V7L16 12.5Z" fill="#4F433F"/>
<path d="M12.5 25C14.9723 25 17.389 24.2669 19.4446 22.8934C21.5002 21.5199 23.1024 19.5676 24.0485 17.2835C24.9946 14.9995 25.2421 12.4861 24.7598 10.0614C24.2775 7.63661 23.087 5.40933 21.3388 3.66117C19.5907 1.91301 17.3634 0.722505 14.9386 0.24019C12.5139 -0.242126 10.0005 0.00541605 7.71646 0.951511C5.43238 1.89761 3.48015 3.49976 2.10663 5.55538C0.733112 7.61099 -7.36343e-08 10.0277 -7.36343e-08 12.5C0.00376763 15.8141 1.32194 18.9913 3.66533 21.3347C6.00871 23.6781 9.18595 24.9962 12.5 25V25ZM12.5 1.69469C14.6371 1.69469 16.7262 2.32841 18.5031 3.51571C20.28 4.70302 21.665 6.39058 22.4828 8.36499C23.3006 10.3394 23.5146 12.512 23.0977 14.608C22.6808 16.704 21.6517 18.6294 20.1405 20.1405C18.6294 21.6517 16.704 22.6808 14.608 23.0977C12.512 23.5146 10.3394 23.3006 8.36498 22.4828C6.39057 21.665 4.70301 20.28 3.51571 18.5031C2.32841 16.7262 1.69468 14.6371 1.69468 12.5C1.69774 9.63519 2.83713 6.88859 4.86286 4.86286C6.88859 2.83713 9.63519 1.69774 12.5 1.69469V1.69469Z" fill="#4F433F"/>
</svg>
