<svg width="20" height="20" viewBox="0 0 20 20" fill="none" xmlns="http://www.w3.org/2000/svg">
<path d="M19.4358 17.9623L15.7525 14.2898C16.9409 12.7758 17.5857 10.9062 17.5833 8.98149C17.5833 7.26739 17.075 5.59177 16.1227 4.16655C15.1704 2.74132 13.8169 1.63049 12.2333 0.974534C10.6496 0.318574 8.90706 0.146946 7.22589 0.481351C5.54472 0.815756 4.00047 1.64118 2.78841 2.85323C1.57636 4.06529 0.750937 5.60954 0.416531 7.29071C0.0821262 8.97188 0.253755 10.7145 0.909715 12.2981C1.56567 13.8817 2.6765 15.2353 4.10173 16.1876C5.52695 17.1399 7.20257 17.6482 8.91667 17.6482C10.8414 17.6506 12.711 17.0057 14.225 15.8173L17.8975 19.5007C17.9982 19.6022 18.118 19.6828 18.25 19.7378C18.3821 19.7928 18.5237 19.8211 18.6667 19.8211C18.8097 19.8211 18.9513 19.7928 19.0833 19.7378C19.2153 19.6828 19.3351 19.6022 19.4358 19.5007C19.5374 19.3999 19.618 19.2801 19.673 19.1481C19.728 19.0161 19.7563 18.8745 19.7563 18.7315C19.7563 18.5885 19.728 18.4469 19.673 18.3149C19.618 18.1829 19.5374 18.063 19.4358 17.9623ZM2.41667 8.98149C2.41667 7.69591 2.79789 6.4392 3.51212 5.37028C4.22635 4.30136 5.24151 3.46824 6.42923 2.97627C7.61695 2.4843 8.92388 2.35558 10.1848 2.60639C11.4456 2.85719 12.6038 3.47625 13.5129 4.3853C14.4219 5.29434 15.041 6.45253 15.2918 7.7134C15.5426 8.97428 15.4139 10.2812 14.9219 11.4689C14.4299 12.6567 13.5968 13.6718 12.5279 14.386C11.459 15.1003 10.2022 15.4815 8.91667 15.4815C7.19276 15.4815 5.53946 14.7967 4.32048 13.5777C3.10149 12.3587 2.41667 10.7054 2.41667 8.98149Z" fill="#4F433F"/>
</svg>
