<svg width="18" height="12" viewBox="0 0 18 12" fill="none" xmlns="http://www.w3.org/2000/svg">
<path d="M11 11C11 10.7 11.1 10.5 11.3 10.3L16.3 5.3C16.7 4.9 17.3 4.9 17.7 5.3C18.1 5.7 18.1 6.3 17.7 6.7L12.7 11.7C12.3 12.1 11.7 12.1 11.3 11.7C11.1 11.5 11 11.3 11 11Z" fill="black"/>
<path d="M11 0.999999C11 0.699999 11.1 0.5 11.3 0.3C11.7 -0.1 12.3 -0.1 12.7 0.3L17.7 5.3C18.1 5.7 18.1 6.3 17.7 6.7C17.3 7.1 16.7 7.1 16.3 6.7L11.3 1.7C11.1 1.5 11 1.3 11 0.999999Z" fill="black"/>
<path d="M2.10206e-06 6C2.12828e-06 5.4 0.400002 5 1 5L17 5C17.6 5 18 5.4 18 6C18 6.6 17.6 7 17 7L1 7C0.400002 7 2.07583e-06 6.6 2.10206e-06 6Z" fill="black"/>
</svg>
