<svg width="18" height="16" viewBox="0 0 18 16" fill="none" xmlns="http://www.w3.org/2000/svg">
<path fill-rule="evenodd" clip-rule="evenodd" d="M1.11297 9.10705C0.817793 9.10705 0.534704 8.9898 0.325982 8.78109C0.117259 8.57238 3.53486e-07 8.28931 3.40585e-07 7.99415C3.27683e-07 7.69899 0.117259 7.41592 0.325982 7.20722C0.534704 6.99851 0.817793 6.88126 1.11297 6.88126L14.0079 6.88126L9.22875 2.10471C9.01977 1.89574 8.90236 1.61232 8.90236 1.31678C8.90236 1.02125 9.01977 0.737827 9.22875 0.528856C9.43774 0.319884 9.72119 0.202484 10.0167 0.202484C10.3123 0.202484 10.5957 0.319884 10.8047 0.528855L17.4825 7.20622C17.5862 7.3096 17.6684 7.43241 17.7245 7.56761C17.7806 7.70282 17.8095 7.84777 17.8095 7.99415C17.8095 8.14053 17.7806 8.28548 17.7245 8.42068C17.6684 8.55589 17.5862 8.6787 17.4825 8.78208L10.8047 15.4594C10.5957 15.6684 10.3123 15.7858 10.0167 15.7858C9.72119 15.7858 9.43774 15.6684 9.22875 15.4594C9.01977 15.2505 8.90236 14.967 8.90236 14.6715C8.90236 14.376 9.01977 14.0926 9.22875 13.8836L14.0079 9.10704L1.11297 9.10705Z" fill="#2F2649"/>
</svg>
