<svg width="40" height="40" viewBox="0 0 40 40" fill="none" xmlns="http://www.w3.org/2000/svg">
<path d="M14.4 20L22.4 28.8V11.2L14.4 20Z" fill="#5B6E9D"/>
<path d="M20 40C16.0444 40 12.1776 38.827 8.8886 36.6294C5.59962 34.4318 3.03617 31.3082 1.52242 27.6537C0.00866569 23.9991 -0.387401 19.9778 0.384303 16.0982C1.15601 12.2186 3.06082 8.65492 5.85787 5.85787C8.65492 3.06082 12.2186 1.15601 16.0982 0.384303C19.9778 -0.387401 23.9991 0.00866569 27.6537 1.52242C31.3082 3.03617 34.4318 5.59962 36.6294 8.8886C38.827 12.1776 40 16.0444 40 20C39.994 25.3025 37.8849 30.3861 34.1355 34.1355C30.3861 37.8849 25.3025 39.994 20 40V40ZM20 2.7115C16.5807 2.7115 13.2381 3.72546 10.395 5.62514C7.55195 7.52483 5.33604 10.2249 4.02751 13.384C2.71899 16.543 2.37662 20.0192 3.0437 23.3728C3.71078 26.7265 5.35735 29.807 7.77519 32.2248C10.193 34.6427 13.2735 36.2892 16.6272 36.9563C19.9808 37.6234 23.457 37.281 26.616 35.9725C29.7751 34.664 32.4752 32.4481 34.3749 29.605C36.2745 26.7619 37.2885 23.4193 37.2885 20C37.2836 15.4163 35.4606 11.0217 32.2194 7.78058C28.9783 4.53941 24.5837 2.71639 20 2.7115V2.7115Z" fill="#5B6E9D"/>
</svg>
