<svg width="40" height="40" viewBox="0 0 40 40" fill="none" xmlns="http://www.w3.org/2000/svg">
<path d="M25.6 20L17.6 28.8V11.2L25.6 20Z" fill="#5B6E9D"/>
<path d="M20 40C23.9556 40 27.8224 38.827 31.1114 36.6294C34.4004 34.4318 36.9638 31.3082 38.4776 27.6537C39.9913 23.9991 40.3874 19.9778 39.6157 16.0982C38.844 12.2186 36.9392 8.65492 34.1421 5.85787C31.3451 3.06082 27.7814 1.15601 23.9018 0.384303C20.0222 -0.387401 16.0009 0.00866569 12.3463 1.52242C8.69181 3.03617 5.56823 5.59962 3.37061 8.8886C1.17298 12.1776 0 16.0444 0 20C0.00602722 25.3025 2.1151 30.3861 5.86452 34.1355C9.61394 37.8849 14.6975 39.994 20 40ZM20 2.7115C23.4193 2.7115 26.7619 3.72546 29.605 5.62514C32.4481 7.52483 34.664 10.2249 35.9725 13.384C37.281 16.543 37.6234 20.0192 36.9563 23.3728C36.2892 26.7265 34.6427 29.807 32.2248 32.2248C29.807 34.6427 26.7265 36.2892 23.3728 36.9563C20.0192 37.6234 16.543 37.281 13.384 35.9725C10.2249 34.664 7.52482 32.4481 5.62514 29.605C3.72545 26.7619 2.7115 23.4193 2.7115 20C2.71638 15.4163 4.53941 11.0217 7.78057 7.78058C11.0217 4.53941 15.4163 2.71639 20 2.7115Z" fill="#5B6E9D"/>
</svg>

